<?xml version="1.0" encoding="UTF-8"?>
<svg id="Warstwa_1" data-name="Warstwa 1" xmlns="http://www.w3.org/2000/svg" viewBox="0 0 503.96 113.17">
  <defs>
    <style>
      .cls-1 {
        fill: #007834;
        stroke-width: 0px;
      }
    </style>
  </defs>
  <g id="Logo_ZUS_rozsz_hex_KZ">
    <path class="cls-1" d="m287.03,3.33v1.46c0,.22-.04.44-.11.65-.07.21-.17.41-.29.6l-12.98,18.29h13.13v3.17h-18.27v-1.55c0-.21.03-.41.1-.6.07-.19.15-.36.27-.53l13.01-18.33h-12.66v-3.17h17.8Z"/>
    <path class="cls-1" d="m296.56,18.44h8.3l-3.33-8.83c-.14-.32-.27-.71-.41-1.16-.14-.45-.28-.93-.41-1.44-.13.52-.27,1.01-.41,1.45-.14.44-.27.83-.39,1.17l-3.34,8.81h0Zm15.73,9.07h-3.04c-.34,0-.63-.09-.83-.26-.21-.17-.38-.39-.49-.65l-2.01-5.34h-10.41l-2.01,5.34c-.09.22-.25.43-.47.62-.22.19-.5.28-.84.28h-3.04l9.59-24.18h3.98l9.58,24.18h0Z"/>
    <path class="cls-1" d="m319.11,13.67h1.12c.43,0,.77-.06,1.04-.17.27-.12.51-.3.72-.56l7.32-8.73c.26-.32.52-.55.8-.68.27-.13.62-.19,1.03-.19h3.36l-8.65,10.21c-.23.29-.46.53-.68.73-.22.19-.45.36-.71.48.34.12.64.3.91.51.27.22.53.51.79.87l8.97,11.38h-3.43c-.25,0-.45-.02-.63-.05s-.32-.08-.45-.15c-.13-.07-.24-.15-.33-.25-.1-.1-.18-.21-.26-.34l-7.56-9.23c-.11-.15-.23-.27-.34-.37-.11-.1-.25-.19-.39-.25-.15-.06-.32-.11-.51-.14-.19-.03-.41-.04-.67-.04h-1.44v10.83h-3.93V3.33h3.93v10.34h0Z"/>
    <path class="cls-1" d="m342.77,13.38l6.23-3.14v2.67c0,.41-.18.7-.52.84l-5.71,2.96v7.5h10.04v3.29h-13.97v-9.05l-3.07,1.56v-2.74c0-.36.16-.6.47-.74l2.6-1.36V3.33h3.93v10.06h0Z"/>
    <path class="cls-1" d="m361.17,18.44h8.29l-3.32-8.83c-.14-.32-.27-.71-.41-1.16-.14-.45-.28-.93-.41-1.44-.14.52-.27,1.01-.41,1.45-.14.44-.27.83-.4,1.17l-3.34,8.81h0Zm15.73,9.07h-3.04c-.35,0-.63-.09-.84-.26-.21-.17-.38-.39-.49-.65l-2.01-5.34h-10.41l-2.02,5.34c-.09.22-.24.43-.47.62-.22.19-.5.28-.84.28h-3.04l9.59-24.18h3.98l9.59,24.18h0Z"/>
    <path class="cls-1" d="m397,15.41c0-1.39-.19-2.63-.56-3.74-.38-1.11-.91-2.04-1.61-2.8-.7-.76-1.55-1.35-2.54-1.76-1-.41-2.12-.61-3.36-.61h-5.19v17.83h5.19c1.24,0,2.36-.2,3.36-.61,1-.4,1.84-.99,2.54-1.75.7-.76,1.24-1.7,1.61-2.8.38-1.1.56-2.35.56-3.75h0Zm4.01,0c0,1.79-.29,3.43-.87,4.91-.58,1.48-1.4,2.76-2.46,3.82-1.06,1.06-2.33,1.89-3.81,2.48-1.48.59-3.13.88-4.94.88h-9.14V3.33h9.14c1.81,0,3.46.29,4.94.88,1.48.59,2.75,1.41,3.81,2.48,1.06,1.06,1.88,2.34,2.46,3.82.58,1.48.87,3.12.87,4.91h0Z"/>
    <path class="cls-1" d="m280.14,64.62c.93,0,1.76-.16,2.49-.47.73-.31,1.35-.75,1.86-1.31.51-.56.9-1.24,1.17-2.02.27-.79.4-1.66.4-2.63v-14.57h3.91v14.57c0,1.42-.23,2.74-.68,3.95-.45,1.21-1.11,2.25-1.95,3.13-.85.88-1.88,1.57-3.1,2.06-1.21.5-2.58.75-4.1.75s-2.89-.25-4.11-.75c-1.21-.5-2.25-1.18-3.1-2.06-.85-.88-1.5-1.92-1.96-3.13-.45-1.21-.68-2.52-.68-3.95v-14.57h3.93v14.56c0,.96.14,1.84.4,2.63.27.79.65,1.47,1.16,2.03.5.56,1.12,1,1.86,1.32.73.31,1.56.47,2.49.47h0Z"/>
    <path class="cls-1" d="m299.27,57.02v7.67h4.87c.89,0,1.63-.1,2.24-.31.62-.21,1.11-.49,1.5-.85.39-.36.66-.78.84-1.27.17-.49.26-1.01.26-1.57,0-1.14-.39-2.04-1.16-2.7-.78-.65-2.01-.98-3.69-.98h-4.85Zm0-2.77h3.93c1.68,0,2.93-.33,3.76-.98.83-.65,1.24-1.58,1.24-2.8,0-1.33-.39-2.3-1.16-2.89-.78-.59-2-.89-3.65-.89h-4.11v7.56h0Zm-3.93,13.55v-24.18h8.04c1.55,0,2.87.15,3.97.45,1.09.3,2,.72,2.7,1.27.7.55,1.22,1.22,1.55,2.01.33.79.5,1.68.5,2.66,0,.57-.08,1.13-.26,1.66-.18.54-.44,1.03-.81,1.49-.36.46-.82.87-1.37,1.25-.55.38-1.19.69-1.94.93,1.71.36,3,.99,3.85,1.9.86.91,1.29,2.09,1.29,3.54,0,1.03-.19,1.97-.58,2.83-.38.85-.94,1.59-1.67,2.21-.73.62-1.64,1.11-2.71,1.45-1.08.35-2.3.52-3.68.52h-8.86Z"/>
    <polygon class="cls-1" points="332.31 43.62 332.31 46.79 321.18 46.79 321.18 54.08 330.08 54.08 330.08 57.15 321.18 57.15 321.18 64.62 332.33 64.62 332.31 67.8 317.23 67.8 317.23 43.62 332.31 43.62 332.31 43.62"/>
    <path class="cls-1" d="m354,43.62v1.46c0,.22-.04.44-.11.65-.07.21-.17.41-.29.6l-12.98,18.29h13.13v3.17h-18.27v-1.55c0-.21.03-.41.1-.6.07-.19.15-.36.27-.53l13.01-18.33h-12.66v-3.17h17.8Z"/>
    <path class="cls-1" d="m361.35,55.94h3.59c.87,0,1.64-.11,2.31-.34.66-.23,1.22-.54,1.66-.95.44-.41.77-.9,1-1.48.23-.58.34-1.23.34-1.95s-.11-1.34-.33-1.9c-.22-.56-.54-1.04-.98-1.43-.44-.39-.99-.69-1.65-.9-.67-.21-1.45-.31-2.34-.31h-3.59v9.25h0Zm0,3.1v8.75h-3.93v-24.18h7.52c1.58,0,2.95.18,4.11.55,1.16.37,2.11.89,2.87,1.55.76.67,1.32,1.47,1.69,2.4.37.94.56,1.97.56,3.1s-.2,2.21-.59,3.16c-.39.96-.97,1.78-1.75,2.47-.77.69-1.73,1.23-2.88,1.61-1.15.39-2.48.58-4.01.58h-3.59Z"/>
    <polygon class="cls-1" points="381.49 67.8 377.54 67.8 377.54 43.62 381.49 43.62 381.49 67.8 381.49 67.8"/>
    <polygon class="cls-1" points="402.15 43.62 402.15 46.79 391.02 46.79 391.02 54.08 399.92 54.08 399.92 57.15 391.02 57.15 391.02 64.62 402.17 64.62 402.15 67.8 387.08 67.8 387.08 43.62 402.15 43.62 402.15 43.62"/>
    <path class="cls-1" d="m422.34,62.41c.21,0,.39.08.55.25l1.56,1.7c-.99,1.18-2.19,2.1-3.63,2.74-1.43.64-3.15.96-5.14.96-1.77,0-3.37-.3-4.79-.91-1.43-.61-2.64-1.46-3.65-2.55-1.01-1.09-1.78-2.39-2.32-3.9-.54-1.51-.82-3.18-.82-4.99s.29-3.48.86-4.99c.58-1.51,1.39-2.82,2.43-3.91s2.3-1.94,3.76-2.54c1.46-.6,3.07-.91,4.83-.91s3.29.28,4.62.85c1.34.57,2.5,1.32,3.49,2.26l-1.29,1.83c-.09.12-.2.23-.32.32-.12.09-.29.14-.5.14-.23,0-.48-.1-.76-.31-.29-.21-.65-.44-1.09-.69-.44-.25-1-.48-1.66-.69-.67-.21-1.5-.31-2.49-.31-1.15,0-2.21.2-3.17.61-.96.4-1.79.99-2.48,1.76-.69.77-1.23,1.71-1.62,2.82-.39,1.11-.58,2.37-.58,3.78s.2,2.69.6,3.8c.4,1.11.96,2.05,1.66,2.82s1.53,1.35,2.48,1.75c.95.4,1.97.61,3.07.61.67,0,1.27-.04,1.81-.11.53-.07,1.02-.19,1.47-.35.45-.16.87-.37,1.27-.61.4-.25.79-.55,1.18-.91.23-.2.45-.3.67-.3h0Z"/>
    <path class="cls-1" d="m444.89,43.62v1.46c0,.22-.04.44-.11.65-.07.21-.17.41-.29.6l-12.98,18.29h13.13v3.17h-18.27v-1.55c0-.21.03-.41.1-.6.06-.19.16-.36.27-.53l13.01-18.33h-12.66v-3.17h17.8Z"/>
    <polygon class="cls-1" points="463.38 43.62 463.38 46.79 452.25 46.79 452.25 54.08 461.15 54.08 461.15 57.15 452.25 57.15 452.25 64.62 463.4 64.62 463.38 67.8 448.31 67.8 448.31 43.62 463.38 43.62 463.38 43.62"/>
    <path class="cls-1" d="m484.18,36.63l-5.46,4.8c-.2.18-.39.29-.57.34-.18.05-.4.07-.67.07h-2.6l3.69-4.58c.1-.15.2-.26.3-.34.1-.08.21-.14.34-.19.12-.05.26-.07.41-.08.15-.01.33-.02.53-.02h4.03Zm-14.88,6.99c.17,0,.31,0,.43.03.12.02.23.05.33.09.1.05.2.11.29.2.09.09.19.2.29.34l13.3,17.08c-.03-.35-.06-.69-.08-1.02s-.03-.65-.03-.94v-15.76h3.44v24.18h-2c-.3,0-.56-.05-.77-.16-.21-.1-.42-.28-.6-.53l-13.28-17.06c.03.32.06.65.08.96.01.32.02.61.02.88v15.9h-3.46v-24.18h2.05Z"/>
    <path class="cls-1" d="m283.25,88.05c-.12.2-.25.35-.39.44-.13.1-.3.14-.5.14-.21,0-.45-.09-.71-.27-.27-.18-.59-.38-.98-.6-.39-.22-.84-.42-1.37-.6-.52-.18-1.15-.28-1.88-.28-.67,0-1.26.08-1.77.25-.51.17-.94.4-1.28.71-.35.3-.61.66-.78,1.07-.17.41-.26.85-.26,1.33,0,.62.16,1.13.49,1.54.33.41.75.76,1.29,1.05.53.29,1.14.55,1.82.76.68.22,1.38.45,2.09.7.71.25,1.41.53,2.09.84.68.31,1.29.71,1.82,1.19.53.48.96,1.07,1.29,1.76.32.69.48,1.54.48,2.54,0,1.07-.18,2.08-.55,3.02-.37.94-.9,1.76-1.61,2.46-.7.7-1.56,1.25-2.59,1.65-1.02.4-2.19.6-3.5.6-.77,0-1.52-.08-2.26-.22-.73-.15-1.43-.36-2.1-.64-.67-.28-1.29-.61-1.87-1-.58-.39-1.1-.83-1.56-1.31l1.14-1.88c.1-.15.23-.28.38-.37.16-.09.33-.13.52-.13.26,0,.54.12.86.36.31.24.69.5,1.13.79.44.29.98.55,1.6.79.63.24,1.38.36,2.25.36,1.42,0,2.52-.35,3.3-1.04.78-.69,1.17-1.65,1.17-2.87,0-.68-.16-1.24-.49-1.67-.32-.43-.75-.79-1.29-1.08-.53-.29-1.14-.54-1.82-.74-.68-.2-1.38-.42-2.08-.65-.71-.23-1.4-.5-2.08-.81-.68-.31-1.29-.71-1.82-1.21-.53-.5-.96-1.11-1.28-1.85-.33-.73-.49-1.65-.49-2.74,0-.87.17-1.72.51-2.54.34-.82.84-1.54,1.49-2.17.66-.63,1.46-1.14,2.43-1.52.96-.38,2.06-.57,3.29-.57,1.39,0,2.66.22,3.82.65,1.16.44,2.16,1.06,3,1.86l-.96,1.88h0Z"/>
    <path class="cls-1" d="m292.77,96.24h3.59c.87,0,1.64-.11,2.31-.34.67-.23,1.22-.54,1.66-.95.45-.41.78-.9,1-1.48.22-.58.34-1.23.34-1.95s-.11-1.34-.33-1.9c-.22-.56-.55-1.04-.98-1.43-.44-.39-.99-.69-1.66-.9-.67-.21-1.45-.31-2.34-.31h-3.59v9.25h0Zm0,3.11v8.75h-3.93v-24.18h7.52c1.58,0,2.95.18,4.1.55,1.16.37,2.11.89,2.87,1.55.76.67,1.32,1.47,1.69,2.4.37.94.56,1.97.56,3.1s-.2,2.21-.59,3.16c-.39.96-.97,1.78-1.74,2.47-.77.69-1.73,1.23-2.88,1.61-1.15.39-2.48.58-4,.58h-3.59Z"/>
    <path class="cls-1" d="m328.23,96c0-1.39-.19-2.63-.56-3.74-.38-1.11-.91-2.05-1.61-2.82-.7-.77-1.55-1.37-2.54-1.78-.99-.41-2.11-.62-3.36-.62s-2.35.21-3.34.62c-.99.41-1.85,1.01-2.55,1.78-.71.77-1.25,1.71-1.63,2.82-.38,1.11-.57,2.35-.57,3.74s.19,2.65.57,3.76c.38,1.11.92,2.04,1.63,2.81.7.77,1.56,1.36,2.55,1.76,1,.41,2.11.61,3.34.61s2.36-.2,3.36-.61c1-.41,1.85-1,2.54-1.76.7-.77,1.24-1.7,1.61-2.81.38-1.11.56-2.36.56-3.76h0Zm4.01,0c0,1.79-.29,3.44-.87,4.95-.58,1.51-1.4,2.81-2.46,3.9-1.06,1.09-2.33,1.95-3.81,2.56-1.48.61-3.13.92-4.94.92s-3.45-.31-4.93-.92c-1.48-.61-2.76-1.47-3.82-2.56-1.06-1.09-1.89-2.39-2.47-3.9-.58-1.51-.88-3.16-.88-4.95s.29-3.44.88-4.95c.58-1.51,1.4-2.81,2.47-3.91,1.06-1.1,2.33-1.95,3.82-2.57,1.48-.61,3.13-.92,4.93-.92s3.46.31,4.94.92c1.48.62,2.75,1.47,3.81,2.57,1.06,1.1,1.88,2.4,2.46,3.91.58,1.51.87,3.16.87,4.95h0Z"/>
    <path class="cls-1" d="m341.57,93.97l6.23-3.14v2.67c0,.41-.17.7-.52.84l-5.71,2.96v7.5h10.04v3.29h-13.97v-9.05l-3.07,1.56v-2.74c0-.36.16-.6.47-.74l2.6-1.36v-11.85h3.93v10.06h0Z"/>
    <polygon class="cls-1" points="369.88 83.92 369.88 87.09 358.75 87.09 358.75 94.38 367.64 94.38 367.64 97.45 358.75 97.45 358.75 104.92 369.89 104.92 369.88 108.09 354.8 108.09 354.8 83.92 369.88 83.92 369.88 83.92"/>
    <path class="cls-1" d="m390.07,102.71c.21,0,.39.08.55.25l1.56,1.7c-.99,1.18-2.19,2.1-3.63,2.74-1.43.64-3.15.96-5.14.96-1.77,0-3.37-.3-4.79-.91-1.43-.61-2.64-1.46-3.65-2.55-1.01-1.09-1.78-2.39-2.32-3.9-.54-1.51-.82-3.18-.82-4.99s.29-3.48.87-4.99c.57-1.51,1.39-2.82,2.43-3.91,1.05-1.09,2.3-1.94,3.76-2.54,1.46-.6,3.07-.91,4.83-.91s3.29.28,4.63.85c1.34.57,2.5,1.32,3.49,2.26l-1.3,1.83c-.09.12-.19.23-.32.32-.12.09-.29.14-.5.14-.22,0-.48-.1-.76-.31-.29-.21-.65-.44-1.09-.69-.44-.25-1-.48-1.66-.69-.67-.21-1.5-.31-2.49-.31-1.15,0-2.21.2-3.17.61-.96.4-1.79.99-2.48,1.76-.69.77-1.24,1.71-1.62,2.82-.39,1.11-.58,2.37-.58,3.78s.2,2.69.6,3.8c.4,1.11.96,2.05,1.66,2.82.7.77,1.53,1.35,2.49,1.75.95.4,1.97.61,3.07.61.67,0,1.28-.04,1.81-.11.53-.07,1.02-.19,1.47-.35.45-.16.87-.37,1.27-.61.4-.25.79-.55,1.18-.91.23-.2.45-.3.67-.3h0Z"/>
    <path class="cls-1" d="m412.61,83.92v1.46c0,.22-.04.44-.11.65-.07.21-.17.41-.29.6l-12.98,18.29h13.13v3.17h-18.27v-1.55c0-.21.03-.41.1-.6.06-.19.15-.36.27-.53l13.01-18.33h-12.66v-3.17h17.8Z"/>
    <path class="cls-1" d="m418.51,83.94c.12.02.23.05.33.09.1.05.2.11.28.2.09.09.19.2.29.34l13.3,17.08c-.03-.35-.06-.69-.08-1.02-.02-.34-.03-.65-.03-.94v-15.76h3.44v24.18h-2c-.3,0-.56-.05-.77-.16-.21-.1-.42-.28-.6-.53l-13.28-17.06c.03.32.06.65.08.96.01.32.02.61.02.88v15.9h-3.46v-24.18h2.05c.17,0,.31,0,.43.03h0Z"/>
    <path class="cls-1" d="m451.66,98.62v9.47h-3.91v-9.47l-8.83-14.71h3.44c.35,0,.62.08.82.25.2.17.37.38.51.64l4.95,8.66c.23.43.43.85.62,1.24.18.39.34.78.48,1.16.14-.39.29-.78.47-1.17.18-.39.38-.8.6-1.23l4.92-8.66c.11-.23.27-.43.49-.61.21-.18.49-.28.82-.28h3.46l-8.83,14.71h0Z"/>
    <path class="cls-1" d="m478.64,102.71c.21,0,.39.08.55.25l1.56,1.7c-.99,1.18-2.19,2.1-3.63,2.74-1.43.64-3.15.96-5.14.96-1.77,0-3.37-.3-4.79-.91-1.43-.61-2.64-1.46-3.65-2.55-1.01-1.09-1.78-2.39-2.32-3.9-.54-1.51-.82-3.18-.82-4.99s.29-3.48.87-4.99c.58-1.51,1.39-2.82,2.43-3.91,1.05-1.09,2.3-1.94,3.76-2.54,1.46-.6,3.07-.91,4.83-.91s3.29.28,4.62.85c1.34.57,2.5,1.32,3.48,2.26l-1.29,1.83c-.09.12-.2.23-.32.32-.12.09-.29.14-.5.14-.23,0-.48-.1-.76-.31-.29-.21-.65-.44-1.09-.69-.44-.25-1-.48-1.66-.69-.67-.21-1.5-.31-2.49-.31-1.15,0-2.21.2-3.17.61-.96.4-1.79.99-2.48,1.76-.69.77-1.24,1.71-1.62,2.82-.39,1.11-.58,2.37-.58,3.78s.2,2.69.6,3.8c.4,1.11.96,2.05,1.66,2.82.71.77,1.53,1.35,2.48,1.75.95.4,1.97.61,3.07.61.67,0,1.28-.04,1.8-.11.53-.07,1.02-.19,1.47-.35.45-.16.87-.37,1.27-.61.4-.25.79-.55,1.18-.91.23-.2.45-.3.67-.3h0Z"/>
    <polygon class="cls-1" points="503.96 108.09 500.03 108.09 500.03 97.33 487.89 97.33 487.89 108.09 483.94 108.09 483.94 83.92 487.89 83.92 487.89 94.5 500.03 94.5 500.03 83.92 503.96 83.92 503.96 108.09 503.96 108.09"/>
    <polygon class="cls-1" points="60.31 83.92 68.33 63.88 41.98 63.88 67.4 -.01 22.35 0 14.11 19.32 37.79 19.32 11.9 83.92 60.31 83.92 60.31 83.92"/>
    <path class="cls-1" d="m113.97,84.17h.87s20.2-.01,20.2-.01V0S113.81,0,113.81,0c0,0,.17,57.24,0,63.68-22.07.28-29.25-18.78-23.48-33.24,2.86-7.17,8.95-22.41,12.09-29.71L102.83,0h-22.16s-1.34,2.59-9.78,23.86c-8.78,22.13,2.01,60.31,43.08,60.31h0Z"/>
    <path class="cls-1" d="m187.47,58.44c-4.27-6.2-17.96-26.02-19.35-28.01-2.56-3.69-3.95-5.8-2.63-8.6,1.1-2.35,3.47-2.66,4.32-2.66l20.51-.06L177.45.21,177.3,0l-15.47.02c-7.98,0-14.87,4.47-18.33,10.54-3.69,6.48-3.89,15.55.24,21.61,3.86,5.67,13.84,20.16,20.2,29.37,4.47,6.47,9.58,12.84,5.27,22.12-2.36,5.1-7.21,8.78-13.93,8.78-9.41,0-146.65,0-146.65,0h-.32L0,113.16l144.21.02h0c20.03,0,34.37-1.69,43.76-18.99,5.51-10.15,6.2-26.02-.5-35.77h0Z"/>
    <polygon class="cls-1" points="232.51 113.15 229.8 113.15 229.8 -.04 232.51 -.04 232.51 113.15 232.51 113.15"/>
  </g>
</svg>